<?xml version="1.0" encoding="UTF-8" standalone="no"?>
<!-- Created with Inkscape (http://www.inkscape.org/) -->

<svg
   xmlns:dc="http://purl.org/dc/elements/1.1/"
   xmlns:cc="http://creativecommons.org/ns#"
   xmlns:rdf="http://www.w3.org/1999/02/22-rdf-syntax-ns#"
   xmlns:svg="http://www.w3.org/2000/svg"
   xmlns="http://www.w3.org/2000/svg"
   xmlns:sodipodi="http://sodipodi.sourceforge.net/DTD/sodipodi-0.dtd"
   xmlns:inkscape="http://www.inkscape.org/namespaces/inkscape"
   width="100mm"
   height="100mm"
   viewBox="0 0 100 100"
   version="1.1"
   id="svg5"
   inkscape:version="0.92.4 (5da689c313, 2019-01-14)"
   sodipodi:docname="zidou.svg">
  <metadata
     id="metadata3735">
    <rdf:RDF>
      <cc:Work
         rdf:about="">
        <dc:format>image/svg+xml</dc:format>
        <dc:type
           rdf:resource="http://purl.org/dc/dcmitype/StillImage" />
        <dc:title></dc:title>
      </cc:Work>
    </rdf:RDF>
  </metadata>
  <sodipodi:namedview
     id="namedview7"
     pagecolor="#ffffff"
     bordercolor="#666666"
     borderopacity="1.0"
     inkscape:pageshadow="2"
     inkscape:pageopacity="0.0"
     inkscape:pagecheckerboard="0"
     inkscape:document-units="mm"
     showgrid="false"
     inkscape:zoom="0.77771467"
     inkscape:cx="459.0458"
     inkscape:cy="136.25938"
     inkscape:window-width="1304"
     inkscape:window-height="746"
     inkscape:window-x="54"
     inkscape:window-y="-8"
     inkscape:window-maximized="1"
     inkscape:current-layer="layer2" />
  <defs
     id="defs2">
    <rect
       x="64.017822"
       y="325.0058"
       width="294.33286"
       height="293.00607"
       id="rect1947" />
  </defs>
  <g
     inkscape:label="Layer 1"
     inkscape:groupmode="layer"
     id="layer1"
     transform="translate(0,-197)">
    <rect
       style="fill:#9835ed;fill-opacity:0;stroke-width:0.17366906"
       id="rect4558"
       width="44.102554"
       height="74.873779"
       x="29.257727"
       y="61.548908" />
  </g>
  <g
     inkscape:groupmode="layer"
     id="layer2"
     inkscape:label="Layer 2"
     transform="translate(0,-197)">
    <ellipse
       id="path69466"
       style="fill:#800000;stroke:#800000;stroke-width:0.17366883"
       cx="37.202278"
       cy="178.64734"
       rx="0.027600273"
       ry="0.064109609" />
    <ellipse
       id="path69468"
       style="fill:#800000;stroke:#800000;stroke-width:0.17366883"
       cx="37.202278"
       cy="178.64734"
       rx="0.027600273"
       ry="0.064109609" />
    <g
       id="g4601">
      <rect
         y="197"
         x="-3.2861328e-07"
         height="100"
         width="100"
         id="rect4575"
         style="fill:#bae7e2;fill-opacity:1;stroke-width:0.2395021" />
      <g
         transform="translate(-41.062197,160.96743)"
         id="g4566">
        <path
           inkscape:connector-curvature="0"
           id="path69552"
           style="fill:#334caa;fill-opacity:1;stroke-width:0.135493"
           d="m 115.61422,77.622232 c -0.0729,3.2e-5 -0.15113,0.0011 -0.23409,0.0026 l -1.08986,0.02016 0.81701,0.07855 0.81752,0.07855 -0.68161,0.106453 c -0.37467,0.05823 -0.98771,0.138509 -1.36219,0.178284 -1.06981,0.113631 -1.15188,0.174943 -0.6134,0.460955 0.26228,0.139266 0.55728,0.256881 0.65474,0.259416 0.0975,0.003 0.64882,0.187809 1.22576,0.410826 0.65907,0.254762 1.48003,0.448321 2.20762,0.520898 1.77978,0.177692 1.77043,0.178599 1.77043,-0.0863 0,-0.303691 -0.64002,-1.24437 -0.84697,-1.24437 -0.0862,0 -0.30018,-0.132712 -0.47491,-0.295071 -0.24564,-0.2282 -0.47484,-0.292338 -1.01286,-0.284736 -0.44414,0.0066 -0.62862,-0.03146 -0.50901,-0.106456 0.0998,-0.06251 -0.15757,-0.09995 -0.66818,-0.09973 z m -0.29507,0.920874 c 0.0705,0 0.12816,0.06078 0.12816,0.134874 0,0.07409 -0.0946,0.134877 -0.21136,0.134877 -0.11692,0 -0.17496,-0.06077 -0.12867,-0.134877 0.0461,-0.0742 0.14153,-0.134874 0.21187,-0.134874 z m 15.24041,0.965833 c -0.0292,-0.0024 -0.0618,-0.0021 -0.0966,0.0011 -0.41828,0.03678 -1.22064,0.448919 -1.76837,0.963763 l -0.44545,0.418579 0.786,0.183452 c 0.43245,0.100928 1.98201,0.224623 3.4432,0.274402 4.00401,0.136292 4.25305,0.141811 4.20233,0.09405 -0.0258,-0.02432 -0.5072,-0.197816 -1.06919,-0.38499 -1.58774,-0.528836 -2.66774,-1.036624 -2.46651,-1.159618 0.12325,-0.0754 0.0809,-0.131025 -0.1447,-0.190686 -0.47169,-0.124751 -0.78067,-0.07986 -0.38602,0.05633 0.21683,0.07486 -0.055,0.09036 -0.74879,0.04134 -0.59946,-0.04229 -1.11035,-0.131686 -1.13533,-0.198438 -0.0227,-0.0608 -0.083,-0.09234 -0.17054,-0.09922 z m -7.00681,8.466666 c -0.66721,0 -1.32756,0.240078 -1.20406,0.4377 0.0442,0.07068 0.27197,0.09041 0.50644,0.04392 0.23443,-0.04647 0.65571,-0.120507 0.93534,-0.164846 0.67458,-0.106971 0.51716,-0.316778 -0.23772,-0.316778 z m -6.60114,2.728516 c -0.3754,-0.0021 -0.46026,0.308575 -0.339,1.109493 0.0955,0.629534 0.36206,0.796269 0.7152,0.447 0.12676,-0.12541 0.26539,-0.06298 0.62219,0.279054 0.25261,0.242144 0.54799,0.452998 0.65629,0.468704 0.10829,0.01572 0.36886,0.16174 0.57877,0.325046 0.46701,0.363326 1.13312,0.564525 2.12132,0.64027 l 0.74879,0.05788 -0.67954,-0.139526 c -0.59697,-0.122409 -1.24866,-0.482941 -1.11363,-0.6165 0.0262,-0.02588 0.76112,0.07271 1.63298,0.220141 0.87187,0.147513 1.7555,0.234699 1.96318,0.193786 0.2152,-0.04241 0.54803,0.01355 0.77412,0.12971 l 0.39636,0.203605 -0.36122,0.09043 c -0.19893,0.04939 -0.32819,0.14356 -0.28681,0.209804 0.0957,0.153202 0.21997,0.151993 1.5136,-0.02376 0.58616,-0.07943 1.20062,-0.230376 1.3653,-0.335381 0.16467,-0.105005 0.39053,-0.156117 0.50229,-0.113689 0.14792,0.05614 0.2283,-0.05103 0.29301,-0.392223 0.12623,-0.665382 -0.28016,-1.331984 -0.54932,-0.901237 -0.23883,0.382188 -2.10443,0.06168 -4.22352,-0.725535 -0.52453,-0.194863 -1.1994,-0.378606 -1.49913,-0.408245 -0.29973,-0.02963 -0.84274,-0.158382 -1.20716,-0.286287 -0.58354,-0.204806 -0.75139,-0.211137 -1.40818,-0.0553 -0.65872,0.156289 -0.79655,0.150514 -1.17719,-0.04909 -0.23702,-0.124283 -0.62391,-0.263417 -0.8599,-0.308507 -0.0657,-0.01254 -0.12511,-0.01934 -0.1788,-0.01963 z m 5.30872,3.347082 c -0.13472,0.0049 -0.11196,0.04661 0.0677,0.122989 0.37456,0.159184 0.58958,0.159184 0.34054,0 -0.11247,-0.07182 -0.29584,-0.126788 -0.40824,-0.122989 z m 1.35392,0.122989 c -0.33397,0 -0.52007,0.05355 -0.46922,0.134877 0.0463,0.07407 0.29561,0.133842 0.55345,0.133842 0.25784,0 0.46922,-0.05975 0.46922,-0.133842 0,-0.07407 -0.24928,-0.134877 -0.55345,-0.134877 z" />
        <path
           inkscape:connector-curvature="0"
           id="text1945"
           style="font-style:normal;font-weight:normal;font-size:96px;line-height:1.25;font-family:sans-serif;letter-spacing:0.17px;word-spacing:0.1px;white-space:pre;shape-inside:url(#rect1947);fill:#334caa;fill-opacity:1;stroke:none;stroke-width:0.26458299"
           d="m 66.286392,76.164698 c -0.389466,0.270933 -0.668858,0.558713 -0.838192,0.863513 v 0.101803 l 0.22841,0.304375 c 0.135467,0 0.237159,-0.01677 0.304892,-0.05064 0.321734,0.03387 0.525116,0.0931 0.60978,0.177768 -0.1016,0.4064 -0.178125,0.60978 -0.228925,0.60978 -0.118533,1.286936 -0.321405,2.328497 -0.609267,3.124358 v 0.177766 c 0,0.08467 0.04194,0.126608 0.126609,0.126608 h 0.05116 c 0.220133,0 0.609605,-0.186089 1.168405,-0.558622 0.4064,-0.08467 0.609264,-0.160676 0.609264,-0.22841 0.8128,-0.254 1.219562,-0.804394 1.219562,-1.651063 v -0.30489 l -0.07648,-0.380855 c -0.677336,-1.253066 -1.532284,-2.02362 -2.565218,-2.311487 z m 9.747727,0.660424 -0.177769,0.127124 c 0,0.08467 0.01677,0.160676 0.05064,0.22841 -0.03387,0.220136 -0.05064,0.381058 -0.05064,0.482658 0,0.575733 -0.236934,0.863513 -0.711067,0.863513 -3.1496,0.9652 -4.724776,1.93023 -4.724776,2.89543 0.08467,0.423334 0.322117,0.914495 0.711584,1.473295 1.761066,2.150531 2.641181,3.530717 2.641181,4.140317 -0.186264,1.456259 -0.338285,2.235208 -0.456819,2.336808 v 0.711067 c -0.08467,0.38947 -0.127124,0.609624 -0.127124,0.660424 v 0.584462 l -0.05064,0.304374 c 0.03387,0 0.06742,0.296691 0.101285,0.889352 -0.03387,0 -0.05064,0.01685 -0.05064,0.05064 0,0.474142 0.279392,0.982078 0.838192,1.523939 v 0.07648 C 72.825262,93.885556 71.817771,93.487173 71.004971,92.979173 H 70.90317 v 0.05116 c 1.710267,1.4224 3.733631,2.133719 6.070431,2.133719 h 0.05116 c 3.539064,0 6.307301,-1.320948 8.305434,-3.962548 0.795867,-1.3208 1.194242,-2.675305 1.194242,-4.063836 0,-0.575739 -0.25423,-1.498822 -0.762227,-2.768822 -0.287864,-0.9144 -1.193663,-2.107978 -2.717663,-3.581178 -1.811866,-1.371597 -3.327291,-2.100212 -4.546491,-2.184879 -1.100667,-1.151467 -1.922068,-1.743802 -2.463932,-1.777669 z m -17.743104,0.558623 c -0.135467,0.06773 -0.203089,0.118581 -0.203089,0.152445 l -2.006595,0.457337 -0.177768,-0.07648 -0.380854,0.203605 c -1.151467,0.2032 -1.727544,0.346829 -1.727544,0.431498 -4.0132,1.151464 -6.205876,1.710251 -6.57841,1.676381 l -0.30489,-0.02532 -0.07596,0.05064 c 0,0.08467 0.0084,0.161192 0.02532,0.228925 0.389467,0.795867 0.931474,1.354651 1.625741,1.676384 l 0.203088,0.02532 c 0.508,0.0508 1.320494,-0.09335 2.438094,-0.432015 l 2.438611,-0.635103 v 0.05116 l 1.651064,-0.380857 c 0.06773,0.0508 0.135355,0.07596 0.203086,0.07596 0.118533,-0.08467 0.677317,-0.203134 1.676384,-0.355534 h 0.05064 v 0.127124 c 0,0.06773 -0.431411,0.685752 -1.295011,1.854152 -3.0988,3.5052 -5.122683,5.663806 -6.070949,6.476606 -1.100667,1.2192 -2.184165,2.252366 -3.250965,3.099036 -0.62653,0.541861 -0.990838,0.804489 -1.092438,0.787548 v 0.177768 c 0.745067,1.439331 1.473163,2.192597 2.184363,2.260327 0.778933,-0.0339 1.575168,-0.109881 2.387968,-0.228409 v 0.05064 l 0.685747,-0.177765 v 0.07648 c 0.372533,-0.0847 0.846407,-0.161197 1.422135,-0.228925 0,0.0508 0.0173,0.07648 0.05116,0.07648 0.287867,-0.135469 1.828459,-0.338852 4.622459,-0.609783 0.745067,-0.0847 1.91348,-0.329988 3.505211,-0.736388 1.559623,-0.499081 2.646748,-0.954468 3.272668,-1.367359 0.153421,1.256851 1.023043,2.238111 2.614311,2.941939 0.1524,0 0.431792,-0.118475 0.838192,-0.355533 0.575733,-0.8636 0.86351,-1.684991 0.863512,-2.463933 v -0.101285 c 0,-0.0677 -0.04194,-0.110185 -0.126605,-0.127124 h -0.05116 c -0.03387,0 -0.135041,0.076 -0.304374,0.228409 -0.6096,0.8128 -1.24491,1.329129 -1.90531,1.54926 -0.08467,0 -0.160679,-0.211256 -0.228409,-0.634587 l 0.05064,-0.101801 -0.05064,-0.432017 c 0,-1.016 0.440317,-2.564977 1.320847,-4.647777 0.89747,-1.54093 1.413796,-2.540034 1.54926,-2.997234 v -0.10179 c -0.626533,-0.8636 -1.160153,-1.29553 -1.600419,-1.29553 h -0.05064 c -0.08467,0 -0.127124,0.0592 -0.127124,0.177768 -0.1016,0 -1.159933,0.474382 -3.175,1.422652 l -0.736388,-0.30489 h -0.05064 c -0.169334,0.0677 -0.254249,0.186192 -0.254249,0.355534 0,0.423328 0.448707,0.87204 1.346171,1.346171 0.4064,0 0.914339,-0.118476 1.523939,-0.355534 h 0.05116 c 0,0.203189 -0.101693,0.440137 -0.304893,0.711067 -0.8128,1.8796 -1.219562,3.310631 -1.219562,4.292762 v 0.482655 c 0,0.0732 0.0038,0.145037 0.0083,0.216525 -0.0097,0.004 -0.01691,0.007 -0.02739,0.01188 -0.03387,-0.0339 -0.296481,-0.101488 -0.787548,-0.203088 l -3.784783,-0.127125 c 0,-0.0508 -0.01677,-0.07596 -0.05064,-0.07596 -0.643466,0.0677 -1.49842,0.101803 -2.565217,0.101803 0,-0.0339 -0.0173,-0.05116 -0.05116,-0.05116 -0.06773,-0.01691 -0.169426,0.009 -0.304893,0.07648 V 91.633 c -2.794,0.3556 -5.003453,0.618218 -6.629053,0.787548 v -0.07596 c 0,-0.1016 1.210871,-1.498558 3.632338,-4.190958 0.694266,-0.694269 1.871067,-1.998435 3.530533,-3.911907 1.354667,-1.659464 2.370543,-2.760255 3.047876,-3.302124 0.508,-0.287864 0.863402,-0.516411 1.066602,-0.685744 0,-0.03386 -0.01677,-0.194792 -0.05064,-0.482659 -0.880542,-1.540811 -1.642698,-2.336651 -2.286164,-2.387451 z m 20.790979,2.565217 h 0.07648 c 1.083733,0 2.302473,0.491162 3.657142,1.473295 1.253066,1.524 1.879991,3.056713 1.879989,4.597654 v 0.30489 c 2e-6,1.1176 -0.35592,2.277115 -1.06712,3.479374 -0.287867,0.541869 -1.091973,1.388954 -2.412773,2.540413 -0.592666,0.321741 -0.888833,0.516205 -0.888833,0.583943 -1.6764,0.897462 -3.149886,1.346171 -4.419886,1.346171 l -0.304892,-0.05064 c 0.287866,-0.880541 0.465568,-1.371695 0.533302,-1.473295 0.237066,-1.557862 1.066853,-5.334111 2.489253,-11.328509 0.1524,-0.9144 0.304937,-1.405562 0.457337,-1.473295 z m -4.114996,0.356052 h 0.228928 c -0.03387,0.440267 -0.110394,0.660424 -0.228928,0.660424 0,0.03387 0.0173,0.0842 0.05116,0.151929 -0.3556,1.761067 -0.609827,2.845081 -0.762227,3.251481 l 0.05116,0.127124 c 0,0.237069 -0.03407,0.355534 -0.101802,0.355534 -0.0508,0.423341 -0.110032,0.635103 -0.177768,0.635103 l 0.05064,0.126609 v 0.228925 l -0.05064,0.127124 c -1.456264,-2.015061 -2.184363,-3.234325 -2.184363,-3.657658 0,-0.3556 0.465482,-0.787527 1.396815,-1.295527 0.897467,-0.474133 1.473028,-0.711068 1.727025,-0.711068 z m 35.929592,1.904791 c -0.4064,0.474134 -0.68579,0.897679 -0.83819,1.270209 -0.7112,1.693328 -1.30406,2.827679 -1.77819,3.40341 -0.57574,0.8128 -1.02444,1.405646 -1.34617,1.778185 -0.82974,1.100661 -1.94731,2.269083 -3.35277,3.505213 -0.254,0.1524 -0.64346,0.431792 -1.1684,0.838192 -0.0508,0 -0.10165,-0.0849 -0.15245,-0.254248 l 0.20309,-1.143082 c -0.0339,0 -0.0506,-0.01685 -0.0506,-0.05064 l 0.6351,-2.997235 c 0.59267,-2.675458 0.88884,-4.233354 0.88884,-4.673615 v -0.152445 c -0.54186,-0.762 -1.01574,-1.143082 -1.42214,-1.143082 -0.508,0.287866 -1.13492,1.863045 -1.87999,4.724775 -0.23707,0.880541 -0.49917,2.184188 -0.78703,3.911388 0.03387,0.0677 0.05064,0.143751 0.05064,0.22841 v 0.889352 c 0,0.1524 0.14415,0.482637 0.43202,0.990637 0.98213,1.151472 1.76108,1.727028 2.33681,1.727028 0.27093,0 0.90573,-0.44032 1.90479,-1.32085 1.1684,-1.236131 2.20157,-2.421316 3.09904,-3.555855 0,0.0339 0.0168,0.0847 0.0506,0.152445 l -0.22893,1.472777 0.0512,0.101804 -0.0512,0.254248 c 0.11853,0.677328 0.26268,1.261287 0.43202,1.752346 0.74506,1.3208 1.37147,1.981277 1.87947,1.981277 l 0.1018,-0.05064 c -0.3048,-0.270941 -0.45734,-0.694476 -0.45734,-1.270206 v -0.203089 c 0,-1.456259 0.1017,-2.446981 0.3049,-2.971911 l -0.0507,-0.127125 0.48266,-1.777669 c 0.44027,-1.202269 0.66043,-1.845961 0.66043,-1.930633 0.49106,-1.4224 0.77046,-2.142109 0.83819,-2.159039 0.1016,-0.44027 0.38099,-0.999054 0.83819,-1.676384 V 83.5813 c -0.3048,-0.626539 -0.8468,-1.083625 -1.62574,-1.371495 z m -16.402617,0.101804 c -0.220133,0 -0.609605,0.118467 -1.168405,0.355534 -1.100667,0.389469 -2.12493,1.329327 -3.073196,2.819466 -1.1684,2.1336 -1.752865,3.928414 -1.752865,5.384684 v 0.177768 c 0,0.474131 0.13576,0.99046 0.406694,1.54926 1.286933,1.642528 2.480508,2.463932 3.581175,2.463932 H 92.6145 c 0.694267,0 1.396683,-0.203383 2.107883,-0.609783 1.151466,-0.745069 2.108626,-1.676027 2.870626,-2.793627 0.254,-0.3556 0.550166,-0.846756 0.888833,-1.473295 0.3048,-0.8636 0.516572,-1.354767 0.635103,-1.473295 0,-0.0339 -0.0173,-0.07631 -0.05116,-0.127124 0.1524,-0.6096 0.228925,-0.956612 0.228925,-1.041281 v -0.838192 l -0.05116,-0.101801 h 0.05116 c 0,-0.389462 -0.169315,-0.838171 -0.507979,-1.346171 -0.541866,-0.846672 -1.236411,-1.473073 -2.083077,-1.879473 -0.795867,-0.711203 -1.456341,-1.066602 -1.981274,-1.066602 z m 1.473295,2.285648 0.685745,0.254249 0.406178,-0.203089 c 0.2032,0.0847 0.304889,0.364053 0.304889,0.838192 l -0.05064,0.22841 0.05064,0.177768 c -0.169333,0.999069 -0.381103,1.701998 -0.635103,2.108398 0,0.287859 -0.355401,0.99028 -1.066601,2.10788 -0.440267,0.626531 -0.694492,0.939996 -0.762228,0.939996 -0.5588,0.626531 -1.091901,1.117695 -1.599901,1.473295 -0.829733,0.440269 -1.532665,0.693981 -2.108398,0.761709 -0.0508,-0.0339 -0.143587,-0.05064 -0.279054,-0.05064 -0.237066,0 -0.356049,-0.144145 -0.356049,-0.432015 l 0.05116,-0.101287 -0.05116,-0.27957 v -0.533299 c 0.4064,-2.150531 1.092554,-3.894511 2.057754,-5.232239 0.524936,-0.762 0.947957,-1.295619 1.269691,-1.600419 1.016,-0.3048 1.710544,-0.457338 2.083077,-0.457339 z" />
      </g>
    </g>
  </g>
</svg>
